<svg xmlns="http://www.w3.org/2000/svg" version="1.1" xmlns:xlink="http://www.w3.org/1999/xlink" xmlns:svgjs="http://svgjs.com/svgjs" width="512" height="512" x="0" y="0" viewBox="0 0 64 64" style="enable-background:new 0 0 512 512" xml:space="preserve" class=""><g><path d="M47.6,45.11,39,43.2V41.106A14.087,14.087,0,0,0,42.708,38H46a3,3,0,0,0,3-3V34a3,3,0,0,0,3-3V25a3,3,0,0,0-2-2.816V19a18,18,0,0,0-36,0v3.184A3,3,0,0,0,12,25v6a3,3,0,0,0,3,3h3.939A14.061,14.061,0,0,0,25,41.106V43.2L16.4,45.11A11.927,11.927,0,0,0,7,56.824V62a1,1,0,0,0,1,1H56a1,1,0,0,0,1-1V56.824A11.927,11.927,0,0,0,47.6,45.11Zm-7.14.462-3.791,6.065L33.613,49.8,38.319,45.1ZM47,35a1,1,0,0,1-1,1H44.106a13.9,13.9,0,0,0,.955-2H47ZM44,22H40.831a9.346,9.346,0,0,1-7.974-4.515,1.039,1.039,0,0,0-1.714,0A9.346,9.346,0,0,1,23.169,22H20V19a12,12,0,0,1,24,0Zm6,9a1,1,0,0,1-1,1H45.668A14,14,0,0,0,46,29V24h3a1,1,0,0,1,1,1ZM32,3A16.019,16.019,0,0,1,48,19v3H46V19a14,14,0,0,0-28,0v3H16V19A16.019,16.019,0,0,1,32,3ZM15,32a1,1,0,0,1-1-1V25a1,1,0,0,1,1-1h3v5a14,14,0,0,0,.332,3Zm5-3V24h3.169A11.365,11.365,0,0,0,32,19.747,11.365,11.365,0,0,0,40.831,24H44v5a11.921,11.921,0,0,1-2.273,7H34.816a3,3,0,1,0,0,2h5.095A11.981,11.981,0,0,1,20,29Zm13,8a1,1,0,1,1-1-1A1,1,0,0,1,33,37Zm-1,6a13.894,13.894,0,0,0,5-.939v1.525l-5,5-5-5V42.061A13.894,13.894,0,0,0,32,43ZM25.681,45.1,30.387,49.8l-3.059,1.836-3.791-6.065ZM9,56.824a9.94,9.94,0,0,1,7.831-9.762l4.635-1.03,4.686,7.5a1,1,0,0,0,1.363.327L31,51.766V61H17V56H15v5H9ZM55,61H49V56H47v5H33V51.766l3.485,2.091a1,1,0,0,0,1.363-.327l4.686-7.5,4.635,1.03A9.94,9.94,0,0,1,55,56.824Z" fill="#ffffff" data-original="#000000" class=""></path></g></svg>