<svg xmlns="http://www.w3.org/2000/svg" version="1.1" xmlns:xlink="http://www.w3.org/1999/xlink" xmlns:svgjs="http://svgjs.com/svgjs" width="512" height="512" x="0" y="0" viewBox="0 0 60 60" style="enable-background:new 0 0 512 512" xml:space="preserve" class=""><g><path d="M58,41.184V34.9A26.245,26.245,0,0,0,46.747,13.28a2.986,2.986,0,0,0-2.254-2.69L39.33,9.3a2.962,2.962,0,0,0-.269-.353A3.014,3.014,0,0,0,36.875,8H23.125a3.014,3.014,0,0,0-2.186.944,2.954,2.954,0,0,0-.268.353L15.505,10.59a2.988,2.988,0,0,0-2.255,2.691A26.25,26.25,0,0,0,2,34.9v6.281A3,3,0,0,0,0,44a8.009,8.009,0,0,0,8,8H52a8.009,8.009,0,0,0,8-8A3,3,0,0,0,58,41.184ZM56,34.9V41H43.141l3.371-25.427A24.271,24.271,0,0,1,56,34.9ZM44.749,13.658,41.124,41H38.062l1.789-29.511,4.154,1.04A1,1,0,0,1,44.749,13.658ZM22.4,10.314A.991.991,0,0,1,23.125,10h13.75a1,1,0,0,1,1,1.061L36.059,41H23.941L22.127,11.061A1,1,0,0,1,22.4,10.314Zm-6.4,2.215,4.156-1.04L21.938,41H18.876L15.249,13.646A1,1,0,0,1,15.993,12.529Zm-2.506,3.044L16.859,41H4V34.9A24.273,24.273,0,0,1,13.487,15.573ZM52,50H8a6.006,6.006,0,0,1-6-6,1,1,0,0,1,1-1H57a1,1,0,0,1,1,1A6.006,6.006,0,0,1,52,50Z" fill="#ffffff" data-original="#000000" class=""></path><path d="M27,26h4.276l-3.144,5.5a1,1,0,0,0,.372,1.364,1,1,0,0,0,1.364-.372l4-7A1,1,0,0,0,33,24H28.724l3.144-5.5a1,1,0,1,0-1.736-.992l-4,7A1,1,0,0,0,27,26Z" fill="#ffffff" data-original="#000000" class=""></path></g></svg>