<svg xmlns="http://www.w3.org/2000/svg" version="1.1" xmlns:xlink="http://www.w3.org/1999/xlink" xmlns:svgjs="http://svgjs.com/svgjs" width="512" height="512" x="0" y="0" viewBox="0 0 66 66" style="enable-background:new 0 0 512 512" xml:space="preserve" class=""><g><g><path d="m64.58 42.17c0-3.47-1.43-6.63-3.72-8.92v-.7c0-4.59-1.15-9.11-3.31-13.14 1.52-1.53 1.74-3.98.4-5.74-5.98-7.89-15.07-12.41-24.95-12.41-8.35 0-16.2 3.25-22.12 9.16-1.03 1.03-1.98 2.12-2.83 3.25-.71.94-1 2.1-.84 3.26.13.95.58 1.8 1.24 2.47-2.16 4.03-3.31 8.56-3.31 13.14v.7c-2.3 2.29-3.73 5.45-3.73 8.93 0 6.59 5.13 12.04 11.61 12.57.33 2.03 2.07 3.59 4.19 3.59 2.35 0 4.27-1.91 4.27-4.27v-23.79c0-1.14-.44-2.21-1.25-3.02-.81-.8-1.88-1.24-3.02-1.24-2.12 0-3.86 1.56-4.19 3.59-2.16.18-4.17.9-5.89 2.03.14-3.9 1.16-7.72 2.97-11.17.47.17.96.25 1.46.25 1.38 0 2.69-.66 3.52-1.75.61-.8 1.28-1.58 2.02-2.32 4.25-4.25 9.9-6.58 15.9-6.58 7.1 0 13.63 3.25 17.93 8.91 1.18 1.56 3.2 2.09 4.95 1.47 1.83 3.45 2.85 7.28 2.99 11.19-1.72-1.14-3.73-1.86-5.9-2.04-.33-2.03-2.07-3.59-4.19-3.59-1.13 0-2.2.44-3.02 1.25-.8.8-1.25 1.87-1.25 3.01v23.79c0 2.35 1.91 4.27 4.27 4.27 2.12 0 3.86-1.56 4.19-3.59 1.22-.1 2.39-.37 3.48-.8v2.15c0 2.01-1.64 3.65-3.65 3.65h-14.21c-.44-1.74-2.01-3.04-3.88-3.04-2.21 0-4.02 1.8-4.02 4.02 0 2.21 1.8 4.02 4.02 4.02 1.88 0 3.44-1.3 3.88-3.04h14.22c3.09 0 5.6-2.51 5.6-5.6v-3.11c3.69-2.21 6.17-6.23 6.17-10.81zm-49.67-11.9c0-1.27 1.03-2.3 2.3-2.3.62 0 1.2.24 1.64.67.43.44.67 1.01.67 1.63v23.79c0 1.27-1.04 2.31-2.31 2.31s-2.3-1.04-2.3-2.31zm-1.96 22.51c-5.37-.55-9.58-5.12-9.58-10.62s4.21-10.06 9.58-10.62zm39.54-34.99c-4.67-6.15-11.77-9.68-19.49-9.68-6.52 0-12.66 2.54-17.28 7.15-.8.8-1.54 1.65-2.2 2.52-.79 1.04-2.37 1.27-3.42.48-.52-.39-.86-.96-.95-1.61s.07-1.29.47-1.81c.8-1.06 1.69-2.08 2.65-3.04 5.54-5.53 12.9-8.58 20.73-8.58 9.26 0 17.78 4.24 23.38 11.62.81 1.07.6 2.61-.47 3.42-1.07.82-2.61.61-3.42-.47zm-17.78 44.99c-1.14 0-2.06-.92-2.06-2.06s.92-2.06 2.06-2.06 2.06.92 2.06 2.06-.92 2.06-2.06 2.06zm16.38-8.72c0 1.27-1.03 2.31-2.3 2.31s-2.31-1.04-2.31-2.31v-23.79c0-.62.24-1.19.67-1.62.44-.44 1.03-.68 1.64-.68 1.27 0 2.3 1.03 2.3 2.3zm1.96-1.28v-21.23c5.37.55 9.58 5.12 9.58 10.62s-4.22 10.06-9.58 10.61z" fill="#ffffff" data-original="#000000" class=""></path><path d="m33.01 41.53c.61 0 1.16-.31 1.47-.85l1.83-3.15h2.52c2 0 3.64-1.63 3.64-3.64v-7.27c0-2-1.63-3.64-3.64-3.64h-11.66c-2 0-3.64 1.63-3.64 3.64v7.27c0 2 1.63 3.64 3.64 3.64h2.52l1.85 3.16c.31.53.86.84 1.47.84zm-3.16-5.95h-2.68c-.93 0-1.68-.75-1.68-1.68v-7.27c0-.93.75-1.68 1.68-1.68h11.66c.93 0 1.68.75 1.68 1.68v7.27c0 .93-.75 1.68-1.68 1.68h-2.68c-.61 0-1.17.33-1.46.85l-1.69 2.9-1.69-2.89c-.3-.53-.86-.86-1.46-.86z" fill="#ffffff" data-original="#000000" class=""></path><path d="m29.24 29.11h7.51c.54 0 .98-.44.98-.98s-.44-.98-.98-.98h-7.51c-.54 0-.98.44-.98.98s.44.98.98.98z" fill="#ffffff" data-original="#000000" class=""></path><path d="m33.98 32.24c0-.54-.44-.98-.98-.98h-3.76c-.54 0-.98.44-.98.98s.44.98.98.98h3.76c.54-.01.98-.44.98-.98z" fill="#ffffff" data-original="#000000" class=""></path></g></g></svg>