<svg xmlns="http://www.w3.org/2000/svg" version="1.1" xmlns:xlink="http://www.w3.org/1999/xlink" xmlns:svgjs="http://svgjs.com/svgjs" width="512" height="512" x="0" y="0" viewBox="0 0 512.001 512.001" style="enable-background:new 0 0 512 512" xml:space="preserve" class=""><g>
<g>
	<g>
		<rect x="171" y="372.6" width="170" height="30" fill="#ff4b00" data-original="#000000" class=""></rect>
	</g>
</g>
<g>
	<g>
		<rect x="171" y="432.6" width="170" height="79.4" fill="#ff4b00" data-original="#000000" class=""></rect>
	</g>
</g>
<g>
	<g>
		<path d="M130.966,98.408L137.744,90H41.32c-6.663,0-12.527,4.395-14.397,10.79l-26.32,90c-1.326,4.534-0.439,9.427,2.394,13.206
			C5.83,207.776,10.277,210,15,210h126v-45.988C118.727,149.121,114.649,118.648,130.966,98.408z" fill="#ff4b00" data-original="#000000" class=""></path>
	</g>
</g>
<g>
	<g>
		<path d="M511.398,190.79l-26.321-90C483.206,94.395,477.343,90,470.68,90h-96.423c0,0,5.084,6.307,6.778,8.409
			c16.141,20.023,12.462,50.564-10.035,65.604V210h126c4.724,0,9.171-2.225,12.003-6.004
			C511.836,200.216,512.723,195.323,511.398,190.79z" fill="#ff4b00" data-original="#000000" class=""></path>
	</g>
</g>
<g>
	<g>
		<path d="M357.679,117.236l-90-111.649C264.831,2.054,260.537,0,256,0s-8.831,2.054-11.678,5.586l-90,111.65
			c-7.892,9.789-0.906,24.414,11.678,24.414h180C358.571,141.65,365.578,127.034,357.679,117.236z" fill="#ff4b00" data-original="#000000" class=""></path>
	</g>
</g>
<g>
	<g>
		<path d="M171,171.65v170.949h170V171.65H171z M291,284.401c0,8.284-6.716,15-15,15h-40c-8.284,0-15-6.716-15-15V245
			c0-8.284,6.716-15,15-15h40c8.284,0,15,6.716,15,15V284.401z" fill="#ff4b00" data-original="#000000" class=""></path>
	</g>
</g>
<g>
	<g>
		<path d="M371,240v272h95c8.284,0,15-6.716,15-15V240H371z M451,467c0,8.284-6.716,15-15,15h-20c-8.284,0-15-6.716-15-15v-24.401
			c0-8.284,6.716-15,15-15h20c8.284,0,15,6.716,15,15V467z M451,382.599c0,8.284-6.716,15-15,15h-20c-8.284,0-15-6.716-15-15V285
			c0-8.284,6.716-15,15-15h20c8.284,0,15,6.716,15,15V382.599z" fill="#ff4b00" data-original="#000000" class=""></path>
	</g>
</g>
<g>
	<g>
		<path d="M31,240v257c0,8.284,6.716,15,15,15h95V240H31z M111,467c0,8.284-6.716,15-15,15H76c-8.284,0-15-6.716-15-15v-24.401
			c0-8.284,6.716-15,15-15h20c8.284,0,15,6.716,15,15V467z M111,382.599c0,8.284-6.716,15-15,15H76c-8.284,0-15-6.716-15-15V285
			c0-8.284,6.716-15,15-15h20c8.284,0,15,6.716,15,15V382.599z" fill="#ff4b00" data-original="#000000" class=""></path>
	</g>
</g>
<g>
</g>
<g>
</g>
<g>
</g>
<g>
</g>
<g>
</g>
<g>
</g>
<g>
</g>
<g>
</g>
<g>
</g>
<g>
</g>
<g>
</g>
<g>
</g>
<g>
</g>
<g>
</g>
<g>
</g>
</g></svg>